<svg width="94" height="34" viewBox="0 0 94 34" fill="none" xmlns="http://www.w3.org/2000/svg">
<path d="M47.92 19.256L47.936 20.488C47.8933 21.2667 47.7973 21.9227 47.648 22.456C47.4987 22.9893 47.2053 23.4747 46.768 23.912C46.0427 24.6373 44.9867 25 43.6 25C41.968 25 40.848 24.7867 40.24 24.36C39.632 23.9227 39.328 23.1387 39.328 22.008V13.608H43.76C45.04 13.608 46.0427 13.9707 46.768 14.696C47.3547 15.2827 47.7013 15.9973 47.808 16.84C47.8827 17.4373 47.92 18.2427 47.92 19.256ZM45.216 22.312C45.4187 22.0667 45.5467 21.7307 45.6 21.304C45.664 20.8667 45.696 20.1893 45.696 19.272C45.696 18.3547 45.664 17.6933 45.6 17.288C45.5467 16.872 45.4187 16.5413 45.216 16.296C44.832 15.8267 44.2773 15.592 43.552 15.592H41.552V21.896C41.552 22.3227 41.696 22.616 41.984 22.776C42.272 22.936 42.784 23.016 43.52 23.016C44.2667 23.016 44.832 22.7813 45.216 22.312ZM58.2269 18.776V19.64C58.2269 21.5493 57.8642 22.936 57.1389 23.8C56.4242 24.664 55.2722 25.096 53.6829 25.096C52.0935 25.096 50.9415 24.664 50.2269 23.8C49.5229 22.936 49.1709 21.5333 49.1709 19.592V18.76C49.1709 16.9893 49.5282 15.672 50.2429 14.808C50.9682 13.944 52.1095 13.512 53.6669 13.512C55.2349 13.512 56.3869 13.9493 57.1229 14.824C57.8589 15.6987 58.2269 17.016 58.2269 18.776ZM56.0029 19.592V19C56.0029 17.976 55.8749 17.16 55.6189 16.552C55.3202 15.848 54.6802 15.496 53.6989 15.496C52.7069 15.496 52.0615 15.848 51.7629 16.552C51.5175 17.128 51.3949 17.944 51.3949 19V19.592C51.3949 20.968 51.5869 21.896 51.9709 22.376C52.1202 22.5787 52.3389 22.7547 52.6269 22.904C52.9255 23.0427 53.2775 23.112 53.6829 23.112C54.0989 23.112 54.4509 23.0427 54.7389 22.904C55.0269 22.7653 55.2509 22.5947 55.4109 22.392C55.5709 22.1893 55.6935 21.9227 55.7789 21.592C55.9282 21.0693 56.0029 20.4027 56.0029 19.592ZM67.1958 25H63.8038C62.5238 25 61.5958 24.7547 61.0198 24.264C60.4544 23.7627 60.1718 22.952 60.1718 21.832V13.608H62.3958V21.832C62.3958 22.28 62.4971 22.5893 62.6998 22.76C62.9024 22.9307 63.2704 23.016 63.8038 23.016H67.1958V25ZM71.1926 25H68.9686V13.608H71.1926V25ZM82.7236 13.608V23.848C82.7236 24.2 82.617 24.504 82.4036 24.76C82.1903 25.0053 81.9396 25.128 81.6516 25.128C80.9156 25.128 80.313 24.7013 79.8436 23.848L75.9076 17.688V25H73.6836V13.608H75.8276L80.4996 21.064V13.608H82.7236ZM93.6711 25H91.3511L90.7111 23.032H86.8871L86.2631 25H83.9431L87.5911 14.568C87.7511 14.2053 87.9271 13.9547 88.1191 13.816C88.3218 13.6773 88.5671 13.608 88.8551 13.608C89.1431 13.608 89.3725 13.672 89.5431 13.8C89.7245 13.928 89.8845 14.184 90.0231 14.568L93.6711 25ZM90.1991 21.16L88.8551 16.648L87.4471 21.16H90.1991Z" fill="#002D5C"/>
<circle cx="17" cy="17" r="17" fill="#FF5722"/>
<path d="M11.3038 23L16.5 14L21.6962 23H11.3038Z" stroke="white"/>
<path d="M6.80385 23L12 14L17.1962 23H6.80385Z" stroke="white"/>
<path d="M15.8038 23L21 14L26.1962 23H15.8038Z" stroke="white"/>
<circle cx="16.5" cy="9.5" r="2" stroke="white"/>
<path d="M43.256 3.304L40.856 5.592L43.352 9H42.392L40.328 6.104L39.384 7V9H38.632V3.304H39.384V6.128L42.272 3.304H43.256ZM47.5039 8.456V8.984C47.3653 9.03733 47.2106 9.064 47.0399 9.064C46.6506 9.064 46.4506 8.86133 46.4399 8.456C46.0506 8.89333 45.5519 9.112 44.9439 9.112C44.5386 9.112 44.2159 9.008 43.9759 8.8C43.7413 8.592 43.6239 8.30667 43.6239 7.944C43.6239 7.208 44.1119 6.77867 45.0879 6.656C45.6639 6.58667 45.9973 6.536 46.0879 6.504C46.2799 6.44 46.3839 6.30667 46.3999 6.104C46.4053 6.072 46.4079 6.03733 46.4079 6C46.4079 5.54667 46.0959 5.32 45.4719 5.32C45.1519 5.32 44.9093 5.38667 44.7439 5.52C44.5786 5.648 44.4799 5.86133 44.4479 6.16H43.7839C43.7946 5.71733 43.9519 5.37333 44.2559 5.128C44.5599 4.88267 44.9786 4.76 45.5119 4.76C46.0933 4.76 46.5253 4.89333 46.8079 5.16C46.8986 5.24533 46.9653 5.35733 47.0079 5.496C47.0506 5.63467 47.0746 5.74933 47.0799 5.84C47.0853 5.92533 47.0879 6.056 47.0879 6.232C47.0879 6.44 47.0826 6.74933 47.0719 7.16C47.0613 7.56533 47.0559 7.86933 47.0559 8.072C47.0559 8.22133 47.0746 8.328 47.1119 8.392C47.1546 8.45067 47.2293 8.48 47.3359 8.48C47.3786 8.48 47.4346 8.472 47.5039 8.456ZM46.4079 6.856C46.3599 6.89333 46.3093 6.92533 46.2559 6.952C46.2026 6.97867 46.1333 7 46.0479 7.016C45.9679 7.032 45.9119 7.04533 45.8799 7.056C45.8533 7.06133 45.7839 7.072 45.6719 7.088C45.5599 7.09867 45.5013 7.104 45.4959 7.104C45.3306 7.12533 45.2213 7.14133 45.1679 7.152C45.1199 7.15733 45.0239 7.17867 44.8799 7.216C44.7413 7.25333 44.6426 7.296 44.5839 7.344C44.5253 7.392 44.4666 7.464 44.4079 7.56C44.3546 7.65067 44.3279 7.76 44.3279 7.888C44.3279 8.10133 44.3999 8.26933 44.5439 8.392C44.6933 8.51467 44.8959 8.576 45.1519 8.576C45.4773 8.576 45.7679 8.48 46.0239 8.288C46.2799 8.096 46.4079 7.86933 46.4079 7.608V6.856ZM47.9128 6.064C47.9448 5.59467 48.1235 5.25867 48.4488 5.056C48.7741 4.85333 49.1768 4.752 49.6568 4.752C50.1101 4.752 50.4808 4.84533 50.7688 5.032C51.0621 5.21867 51.2088 5.496 51.2088 5.864C51.2088 6.088 51.1421 6.28 51.0088 6.44C50.8808 6.6 50.7261 6.69867 50.5448 6.736V6.752C50.7635 6.79467 50.9501 6.904 51.1048 7.08C51.2648 7.25067 51.3448 7.48267 51.3448 7.776C51.3448 8.20267 51.1768 8.536 50.8408 8.776C50.5048 9.01067 50.1021 9.128 49.6328 9.128C49.0941 9.128 48.6648 9.00533 48.3448 8.76C48.0301 8.50933 47.8621 8.16 47.8408 7.712H48.5288C48.5501 8 48.6595 8.216 48.8568 8.36C49.0541 8.504 49.3101 8.576 49.6248 8.576C49.9395 8.576 50.1875 8.50133 50.3688 8.352C50.5501 8.19733 50.6408 8.01067 50.6408 7.792C50.6408 7.344 50.3475 7.12 49.7608 7.12H49.1928V6.568H49.6488C49.9101 6.568 50.1208 6.51467 50.2808 6.408C50.4408 6.296 50.5208 6.12533 50.5208 5.896C50.5208 5.736 50.4408 5.59733 50.2808 5.48C50.1261 5.36267 49.9155 5.304 49.6488 5.304C49.3768 5.304 49.1395 5.36533 48.9368 5.488C48.7395 5.61067 48.6275 5.80267 48.6008 6.064H47.9128ZM55.8008 8.456V8.984C55.6621 9.03733 55.5075 9.064 55.3368 9.064C54.9475 9.064 54.7475 8.86133 54.7368 8.456C54.3475 8.89333 53.8488 9.112 53.2408 9.112C52.8355 9.112 52.5128 9.008 52.2728 8.8C52.0381 8.592 51.9208 8.30667 51.9208 7.944C51.9208 7.208 52.4088 6.77867 53.3848 6.656C53.9608 6.58667 54.2941 6.536 54.3848 6.504C54.5768 6.44 54.6808 6.30667 54.6968 6.104C54.7021 6.072 54.7048 6.03733 54.7048 6C54.7048 5.54667 54.3928 5.32 53.7688 5.32C53.4488 5.32 53.2061 5.38667 53.0408 5.52C52.8755 5.648 52.7768 5.86133 52.7448 6.16H52.0808C52.0915 5.71733 52.2488 5.37333 52.5528 5.128C52.8568 4.88267 53.2755 4.76 53.8088 4.76C54.3901 4.76 54.8221 4.89333 55.1048 5.16C55.1955 5.24533 55.2621 5.35733 55.3048 5.496C55.3475 5.63467 55.3715 5.74933 55.3768 5.84C55.3821 5.92533 55.3848 6.056 55.3848 6.232C55.3848 6.44 55.3795 6.74933 55.3688 7.16C55.3581 7.56533 55.3528 7.86933 55.3528 8.072C55.3528 8.22133 55.3715 8.328 55.4088 8.392C55.4515 8.45067 55.5261 8.48 55.6328 8.48C55.6755 8.48 55.7315 8.472 55.8008 8.456ZM54.7048 6.856C54.6568 6.89333 54.6061 6.92533 54.5528 6.952C54.4995 6.97867 54.4301 7 54.3448 7.016C54.2648 7.032 54.2088 7.04533 54.1768 7.056C54.1501 7.06133 54.0808 7.072 53.9688 7.088C53.8568 7.09867 53.7981 7.104 53.7928 7.104C53.6275 7.12533 53.5181 7.14133 53.4648 7.152C53.4168 7.15733 53.3208 7.17867 53.1768 7.216C53.0381 7.25333 52.9395 7.296 52.8808 7.344C52.8221 7.392 52.7635 7.464 52.7048 7.56C52.6515 7.65067 52.6248 7.76 52.6248 7.888C52.6248 8.10133 52.6968 8.26933 52.8408 8.392C52.9901 8.51467 53.1928 8.576 53.4488 8.576C53.7741 8.576 54.0648 8.48 54.3208 8.288C54.5768 8.096 54.7048 7.86933 54.7048 7.608V6.856ZM57.1217 9H56.4417V4.872H57.1217V6.512H59.1857V4.872H59.8657V9H59.1857V7.112H57.1217V9ZM63.991 6.792C64.2363 7.016 64.359 7.32267 64.359 7.712C64.359 8.10133 64.239 8.41333 63.999 8.648C63.7643 8.88267 63.447 9 63.047 9H60.863V4.872H61.543V6.448H63.015C63.4203 6.448 63.7457 6.56267 63.991 6.792ZM62.799 7.032H61.543V8.4H62.799C63.0763 8.4 63.287 8.34133 63.431 8.224C63.5803 8.10133 63.655 7.93067 63.655 7.712C63.655 7.25867 63.3697 7.032 62.799 7.032Z" fill="#CDCDCD"/>
</svg>
