<svg width="65" height="65" viewBox="0 0 65 65" fill="none" xmlns="http://www.w3.org/2000/svg">
<path fill-rule="evenodd" clip-rule="evenodd" d="M32.4997 2.70837C16.0465 2.70837 2.70801 16.0469 2.70801 32.5C2.70801 48.9532 16.0465 62.2917 32.4997 62.2917C48.9528 62.2917 62.2913 48.9532 62.2913 32.5C62.2913 16.0469 48.9528 2.70837 32.4997 2.70837ZM23.5811 38.4773C23.0703 38.9707 22.3862 39.2437 21.6761 39.2375C20.966 39.2313 20.2867 38.9465 19.7845 38.4443C19.2824 37.9422 18.9976 37.2629 18.9914 36.5528C18.9852 35.8427 19.2582 35.1585 19.7515 34.6477L30.5849 23.8144C31.0928 23.3067 31.7815 23.0215 32.4997 23.0215C33.2178 23.0215 33.9066 23.3067 34.4145 23.8144L45.2478 34.6477C45.7411 35.1585 46.0141 35.8427 46.008 36.5528C46.0018 37.2629 45.717 37.9422 45.2148 38.4443C44.7127 38.9465 44.0334 39.2313 43.3233 39.2375C42.6131 39.2437 41.929 38.9707 41.4182 38.4773L32.4997 29.5588L23.5811 38.4773Z" fill="#FF5722"/>
</svg>
